Silent.Hill.Revelation.2012.TS.XViD.AC3-UNiQUE


 
http://www.imdb.com/title/tt0938330/


Ratings..: 6.4/10 from 5,090 users
Metascore: 14/100
Reviews..: 65 user | 48 critic | 11 from Metacritic.com

Director.: Michael J. Bassett
Writer...: Michael J. Bassett
Stars....: Adelaide Clemens, Kit Harington and Sean Bean


PLOT
When her father disappears, Heather Mason is drawn into a strange and terrifying alternate
reality that holds answers to the horrific nightmares that have plagued her since childhood.


SOURCES
Video...: MATiNE 720p - Thanks
Audio...: Jiinx - Thanks bro


NOTES
Very watchable cam still some dark scenes but nice audio so what we gonna complain about now
Dropped the saturation, changed rgb, dropped that bloody awful brightness, then levels filter
Check sample
Enjoy



Greets

INSPiRAL,LEGION,DQ1,ETRG,CM8.......
and thats definetly it !!!!!!!!!!!!




Format : AVI
Format/Info : Audio Video Interleave
File size : 1.35 GiB
Duration : 1h 26mn
Overall bit rate : 2 225 Kbps
Writing library : VirtualDub build 34807/release

Video
ID : 0
Format : MPEG-4 Visual
Format profile : Advanced Simple@L5
Format settings, BVOP : 2
Format settings, QPel : No
Format settings, GMC : No warppoints
Format settings, Matrix : Default (H.263)
Muxing mode : Packed bitstream
Codec ID : XVID
Codec ID/Hint : XviD
Duration : 1h 26mn
Bit rate : 2 087 Kbps
Width : 720 pixels
Height : 304 pixels
Display aspect ratio : 2.35:1
Frame rate : 25.000 fps
Color space : YUV
Chroma subsampling : 4:2:0
Bit depth : 8 bits
Scan type : Progressive
Compression mode : Lossy
Bits/(Pixel*Frame) : 0.381
Stream size : 1.27 GiB (94%)
Writing library : XviD 64

Audio
ID : 1
Format : AC-3
Format/Info : Audio Coding 3
Mode extension : CM (complete main)
Format settings, Endianness : Big
Codec ID : 2000
Duration : 1h 26mn
Bit rate mode : Constant
Bit rate : 128 Kbps
Channel(s) : 2 channels
Channel positions : Front: L R
Sampling rate : 48.0 KHz
Bit depth : 16 bits
Compression mode : Lossy
Stream size : 79.6 MiB (6%)
Alignment : Split accross interleaves
Interleave, duration : 40 ms (1.00 video frame)
Interleave, preload duration : 500 ms

 
http://img23.binimage.org/89/4f/dc/kpl5r.png 
http://img23.binimage.org/5f/54/f5/n5eqv.png 
http://img23.binimage.org/0e/0d/d4/nt4la.png 
http://img23.binimage.org/0e/0d/d4/nt4la.png 
http://img23.binimage.org/4b/8a/1f/p4kjf.png 
http://img23.binimage.org/c8/ab/12/rdoxf.png